<svg width="45" height="45" viewBox="0 0 45 45" fill="none" xmlns="http://www.w3.org/2000/svg">
<path d="M20.625 39.2812C16.8438 38.8125 13.7109 37.1641 11.2266 34.3359C8.74219 31.5078 7.5 28.1875 7.5 24.375C7.5 22.3125 7.90625 20.3359 8.71875 18.4453C9.53125 16.5547 10.6875 14.9062 12.1875 13.5L14.8594 16.1719C13.6719 17.2344 12.7734 18.4688 12.1641 19.875C11.5547 21.2812 11.25 22.7812 11.25 24.375C11.25 27.125 12.125 29.5547 13.875 31.6641C15.625 33.7734 17.875 35.0625 20.625 35.5312V39.2812ZM24.375 39.2812V35.5312C27.0938 35.0312 29.3359 33.7344 31.1016 31.6406C32.8672 29.5469 33.75 27.125 33.75 24.375C33.75 21.25 32.6563 18.5938 30.4688 16.4062C28.2812 14.2187 25.625 13.125 22.5 13.125H22.3594L24.4219 15.1875L21.7969 17.8125L15.2344 11.25L21.7969 4.6875L24.4219 7.3125L22.3594 9.375H22.5C26.6875 9.375 30.2344 10.8281 33.1406 13.7344C36.0469 16.6406 37.5 20.1875 37.5 24.375C37.5 28.1562 36.2578 31.4609 33.7734 34.2891C31.2891 37.1172 28.1562 38.7812 24.375 39.2812Z" fill="black"/>
</svg>
